<?xml version="1.0" encoding="UTF-8"?><svg id="Layer_1" xmlns="http://www.w3.org/2000/svg" viewBox="0 0 360.32 239.7"><defs><style>.cls-1{fill:#231f20;}</style></defs><path class="cls-1" d="m357.8,239.7H2.52c-1.39,0-2.52-1.12-2.52-2.5V2.5C0,1.12,1.13,0,2.52,0h355.27c1.39,0,2.52,1.12,2.52,2.5v234.7c0,1.38-1.13,2.5-2.52,2.5ZM5.05,234.7h350.23V5H5.05v229.7Z"/><g><path class="cls-1" d="m119.73,108.59v-29.87l24.49-41.77c.53-.84.88-1.47,1.03-1.89.15-.42.23-.9.23-1.43,0-.69-.23-1.24-.69-1.66-.46-.42-1.11-.63-1.95-.63h-3.21c-1.07,0-1.87.19-2.4.57-.53.38-1.11,1.07-1.72,2.06l-20.54,35.65-20.54-35.65c-.53-.99-1.09-1.68-1.66-2.06-.57-.38-1.39-.57-2.46-.57h-2.03s-12.93,0-12.93,0h0s-47.1,0-47.1,0c-1.91,0-2.86.92-2.86,2.75v2.63c0,1.83.95,2.75,2.86,2.75h22.32v69.12c0,.84.27,1.53.8,2.06.53.53,1.22.8,2.06.8h4c.84,0,1.53-.27,2.06-.8.53-.53.8-1.22.8-2.06V39.47h22.43s.09,0,.14,0h4.01l23.13,39.26v29.87c0,.84.27,1.53.8,2.06.53.53,1.22.8,2.06.8h4c.84,0,1.53-.27,2.06-.8.53-.53.8-1.22.8-2.06Z"/><path class="cls-1" d="m160.64,111.45h39.71c1.83,0,2.75-.92,2.75-2.75v-2.63c0-1.83-.92-2.75-2.75-2.75h-34.56V34.2c0-.84-.27-1.53-.8-2.06-.54-.53-1.22-.8-2.06-.8h-4c-.84,0-1.53.27-2.06.8s-.8,1.22-.8,2.06v72.67c0,1.45.4,2.58,1.2,3.38.8.8,1.93,1.2,3.38,1.2Z"/><path class="cls-1" d="m217.46,111.45h41.77c1.83,0,2.75-.92,2.75-2.75v-2.63c0-1.83-.92-2.75-2.75-2.75h-36.62v-28.61h30.1c1.22,0,2.21-.34,2.97-1.03.76-.69,1.14-1.64,1.14-2.86v-.46c0-1.14-.38-2.06-1.14-2.75-.76-.69-1.76-1.03-2.97-1.03h-30.1v-27.12h36.62c1.83,0,2.75-.92,2.75-2.75v-2.63c0-1.83-.92-2.75-2.75-2.75h-41.77c-1.45,0-2.58.4-3.38,1.2s-1.2,1.93-1.2,3.38v70.95c0,1.45.4,2.58,1.2,3.38.8.8,1.93,1.2,3.38,1.2Z"/><path class="cls-1" d="m328.76,57.67v-4.23c0-7.25-2.19-12.74-6.58-16.48-4.39-3.74-10.78-5.61-19.17-5.61h-23c-1.6,0-2.86.46-3.78,1.37-.92.92-1.37,2.17-1.37,3.78v72.1c0,.84.27,1.53.8,2.06.53.53,1.22.8,2.06.8h4.01c.84,0,1.53-.27,2.06-.8s.8-1.22.8-2.06V39.35h18.42c5.26,0,9.23,1.14,11.9,3.43,2.67,2.29,4.01,5.72,4.01,10.3v4.69c0,4.5-1.34,7.9-4.01,10.19-2.67,2.29-6.64,3.43-11.9,3.43h-5.26c-1.22,0-2.19.33-2.92.97-.73.65-1.09,1.58-1.09,2.8v.23c0,.76.17,1.47.51,2.12.34.65.86,1.43,1.54,2.35l23.69,30.21c.92,1.14,2.04,1.81,3.38,2,1.33.19,2.54-.1,3.6-.86,1.14-.84,1.83-1.89,2.06-3.15.23-1.26-.15-2.5-1.14-3.72l-20.52-25.41c6.58-.44,11.73-2.19,15.43-5.26,4.31-3.59,6.47-8.93,6.47-16.02Z"/><path class="cls-1" d="m171.18,128.21h-4.01c-.92,0-1.64.27-2.17.8-.53.54-.8,1.22-.8,2.06v52.64c0,5.8-1.58,10.24-4.75,13.33-3.17,3.09-7.76,4.63-13.79,4.63s-10.64-1.54-13.85-4.63c-3.2-3.09-4.81-7.53-4.81-13.33v-52.64c0-.84-.27-1.53-.8-2.06-.53-.53-1.22-.8-2.06-.8h-4.01c-.84,0-1.53.27-2.06.8-.53.54-.8,1.22-.8,2.06v52.19c0,8.32,2.48,14.78,7.44,19.4,4.96,4.62,11.94,6.92,20.94,6.92s15.98-2.31,20.94-6.92c4.96-4.62,7.44-11.08,7.44-19.4v-52.19c0-.84-.27-1.53-.8-2.06-.53-.53-1.22-.8-2.06-.8Z"/><path class="cls-1" d="m233.97,167.98c-2.75-1.33-6.1-2.35-10.07-3.03l-14.65-2.63c-2.44-.46-4.52-1.05-6.24-1.77-1.72-.72-3-1.85-3.83-3.38-.84-1.53-1.26-3.66-1.26-6.41v-2.29c0-4.88,1.37-8.39,4.12-10.53,2.75-2.14,7.06-3.2,12.93-3.2s10.2,1.03,12.99,3.09c2.78,2.06,4.18,5.38,4.18,9.96v2.75c0,1.53.72,2.29,2.17,2.29h5.15c.69,0,1.2-.21,1.54-.63.34-.42.52-.97.52-1.66v-2.75c0-7.09-2.19-12.34-6.58-15.74-4.39-3.39-11.04-5.09-19.97-5.09s-15.34,1.89-19.91,5.67c-4.58,3.78-6.87,9.29-6.87,16.54v2.4c0,4.58.7,8.18,2.12,10.82,1.41,2.63,3.51,4.6,6.29,5.89,2.78,1.3,6.16,2.33,10.13,3.09l14.53,2.63c2.52.46,4.63,1.05,6.35,1.77,1.72.73,3.01,1.85,3.89,3.38.88,1.53,1.32,3.7,1.32,6.52v2.29c0,4.88-1.45,8.41-4.35,10.59-2.9,2.17-7.44,3.26-13.62,3.26s-10.62-1.05-13.56-3.15c-2.94-2.1-4.41-5.47-4.41-10.13v-3.43c0-1.45-.69-2.17-2.06-2.17h-5.15c-.69,0-1.22.19-1.6.57s-.57.96-.57,1.72v3.43c0,7.17,2.25,12.46,6.75,15.85,4.5,3.4,11.37,5.09,20.6,5.09s15.75-1.89,20.49-5.67c4.73-3.78,7.1-9.33,7.1-16.65v-2.4c0-4.65-.73-8.3-2.17-10.93-1.45-2.63-3.55-4.62-6.29-5.95Z"/><path class="cls-1" d="m310.33,128.21h-4c-.84,0-1.53.27-2.06.8-.53.54-.8,1.22-.8,2.06v31.93h-37.54v-31.93c0-.84-.27-1.53-.8-2.06-.53-.53-1.22-.8-2.06-.8h-4.01c-.84,0-1.53.27-2.06.8-.54.54-.8,1.22-.8,2.06v74.39c0,.84.27,1.53.8,2.06.53.54,1.22.8,2.06.8h4.01c.84,0,1.53-.27,2.06-.8.53-.53.8-1.22.8-2.06v-34.22h37.54v34.22c0,.84.27,1.53.8,2.06.53.54,1.22.8,2.06.8h4c.84,0,1.53-.27,2.06-.8.53-.53.8-1.22.8-2.06v-74.39c0-.84-.27-1.53-.8-2.06-.54-.53-1.22-.8-2.06-.8Z"/><path class="cls-1" d="m97.25,170.49c-1.8-1.35-3.93-2.41-6.36-3.2,1.82-.72,3.46-1.61,4.88-2.7,4.16-3.2,6.24-7.78,6.24-13.73v-2.86c0-6.56-2.06-11.5-6.18-14.82-4.12-3.32-10.26-4.98-18.43-4.98h-26.11c-1.45,0-2.57.4-3.38,1.2-.8.8-1.2,1.93-1.2,3.38v70.95c0,1.45.4,2.58,1.2,3.38.8.8,1.93,1.2,3.38,1.2h27.02c8.31,0,14.63-1.75,18.94-5.26,4.31-3.51,6.47-8.62,6.47-15.34v-3.2c0-6.1-2.16-10.78-6.47-14.02Zm-3.38,17.11c0,4.2-1.3,7.38-3.89,9.56-2.59,2.17-6.49,3.26-11.67,3.26h-21.87v-28.84h.01v-7.78h-.01v-27.7h20.96c4.96,0,8.68,1.05,11.16,3.15,2.48,2.1,3.72,5.17,3.72,9.21v3.09c0,4.04-1.24,7.1-3.72,9.16-2.48,2.06-6.2,3.09-11.16,3.09h-2.74s0,0,0,0c-2.55,0-4.62,1.74-4.62,3.89s2.07,3.89,4.62,3.89h0s3.82,0,3.82,0c5.1.02,8.95,1.09,11.51,3.2,2.59,2.14,3.89,5.34,3.89,9.61v3.2Z"/></g></svg>